<?xml version="1.0" encoding="utf-8" standalone="no"?>
<!DOCTYPE svg PUBLIC "-//W3C//DTD SVG 1.1//EN"
  "http://www.w3.org/Graphics/SVG/1.1/DTD/svg11.dtd">
<svg xmlns:xlink="http://www.w3.org/1999/xlink" width="666.426407pt" height="628.777966pt" viewBox="0 0 666.426407 628.777966" xmlns="http://www.w3.org/2000/svg" version="1.1">
 <metadata>
  <rdf:RDF xmlns:dc="http://purl.org/dc/elements/1.1/" xmlns:cc="http://creativecommons.org/ns#" xmlns:rdf="http://www.w3.org/1999/02/22-rdf-syntax-ns#">
   <cc:Work>
    <dc:type rdf:resource="http://purl.org/dc/dcmitype/StillImage"/>
    <dc:date>2023-02-15T16:35:36.478029</dc:date>
    <dc:format>image/svg+xml</dc:format>
    <dc:creator>
     <cc:Agent>
      <dc:title>Matplotlib v3.5.0, https://matplotlib.org/</dc:title>
     </cc:Agent>
    </dc:creator>
   </cc:Work>
  </rdf:RDF>
 </metadata>
 <defs>
  <style type="text/css">*{stroke-linejoin: round; stroke-linecap: butt}</style>
 </defs>
 <g id="figure_1">
  <g id="patch_1">
   <path d="M -0 628.777966 
L 666.426407 628.777966 
L 666.426407 0 
L -0 0 
z
" style="fill: #ffffff"/>
  </g>
  <g id="axes_1">
   <g id="patch_2">
    <path d="M 36.465625 604.899841 
L 654.149311 604.899841 
L 654.149311 7.2 
L 36.465625 7.2 
z
" style="fill: #ffffff"/>
   </g>
   <g id="patch_3">
    <path d="M 375.586081 326.336605 
L 375.586081 417.172443 
L 436.143306 447.451055 
L 496.700531 386.89383 
z
" clip-path="url(#p9052b825de)" style="fill: #444444; stroke: #000000; stroke-width: 3; stroke-linejoin: miter"/>
   </g>
   <g id="patch_4">
    <path d="M 345.307468 447.451055 
Q 345.307468 432.463142 345.307468 417.475229 
" clip-path="url(#p9052b825de)" style="fill: none; stroke: #eeffee; stroke-width: 2; stroke-linejoin: miter; stroke-linecap: round"/>
    <g id="patch_5">
     <path d="M 496.700531 294.846848 
Q 481.561225 294.241275 466.421919 293.635703 
" clip-path="url(#p9052b825de)" style="fill: none; stroke: #ffeeee; stroke-width: 2; stroke-linejoin: miter; stroke-linecap: round"/>
     <g id="patch_6">
      <path d="M 193.914405 296.057992 
Q 208.902318 296.057992 223.890231 296.057992 
" clip-path="url(#p9052b825de)" style="fill: none; stroke: #eeeeff; stroke-width: 2; stroke-linejoin: miter; stroke-linecap: round"/>
      <g id="patch_7">
       <path d="M 345.307468 417.475229 
Q 345.307468 402.638709 345.307468 387.802189 
" clip-path="url(#p9052b825de)" style="fill: none; stroke: #aaffaa; stroke-width: 2; stroke-linejoin: miter; stroke-linecap: round"/>
       <g id="patch_8">
        <path d="M 466.421919 293.635703 
Q 451.434005 292.121773 436.446092 290.607842 
" clip-path="url(#p9052b825de)" style="fill: none; stroke: #ffaaaa; stroke-width: 2; stroke-linejoin: miter; stroke-linecap: round"/>
        <g id="patch_9">
         <path d="M 223.890231 296.057992 
Q 238.726752 296.057992 253.563272 296.057992 
" clip-path="url(#p9052b825de)" style="fill: none; stroke: #aaaaff; stroke-width: 2; stroke-linejoin: miter; stroke-linecap: round"/>
         <g id="patch_10">
          <path d="M 345.307468 387.802189 
Q 345.307468 372.814275 345.307468 357.826362 
" clip-path="url(#p9052b825de)" style="fill: none; stroke: #88ff88; stroke-width: 2; stroke-linejoin: miter; stroke-linecap: round"/>
          <g id="patch_11">
           <path d="M 436.446092 290.607842 
Q 421.458179 289.093911 406.470266 287.579981 
" clip-path="url(#p9052b825de)" style="fill: none; stroke: #ff8888; stroke-width: 2; stroke-linejoin: miter; stroke-linecap: round"/>
           <g id="patch_12">
            <path d="M 253.563272 296.057992 
Q 268.248399 296.057992 282.933526 296.057992 
" clip-path="url(#p9052b825de)" style="fill: none; stroke: #8888ff; stroke-width: 2; stroke-linejoin: miter; stroke-linecap: round"/>
            <g id="patch_13">
             <path d="M 345.307468 357.826362 
Q 345.307468 342.838449 345.307468 327.850536 
" clip-path="url(#p9052b825de)" style="fill: none; stroke: #33ff33; stroke-width: 2; stroke-linejoin: miter; stroke-linecap: round"/>
             <g id="patch_14">
              <path d="M 406.470266 287.579981 
Q 391.482352 286.06605 376.494439 284.552119 
" clip-path="url(#p9052b825de)" style="fill: none; stroke: #ff3333; stroke-width: 2; stroke-linejoin: miter; stroke-linecap: round"/>
              <g id="patch_15">
               <path d="M 282.933526 296.057992 
Q 297.46726 296.057992 312.000994 296.057992 
" clip-path="url(#p9052b825de)" style="fill: none; stroke: #3333ff; stroke-width: 2; stroke-linejoin: miter; stroke-linecap: round"/>
               <g id="patch_16">
                <path d="M 345.307468 330.878397 
C 346.110466 330.878397 346.880684 330.559362 347.448489 329.991557 
C 348.016295 329.423751 348.335329 328.653534 348.335329 327.850536 
C 348.335329 327.047537 348.016295 326.27732 347.448489 325.709514 
C 346.880684 325.141709 346.110466 324.822674 345.307468 324.822674 
C 344.50447 324.822674 343.734252 325.141709 343.166447 325.709514 
C 342.598641 326.27732 342.279607 327.047537 342.279607 327.850536 
C 342.279607 328.653534 342.598641 329.423751 343.166447 329.991557 
C 343.734252 330.559362 344.50447 330.878397 345.307468 330.878397 
L 345.307468 330.878397 
z
" clip-path="url(#p9052b825de)" style="fill: none; stroke: #00ff00; stroke-width: 2; stroke-linejoin: miter"/>
               </g>
               <g id="patch_17">
                <path d="M 376.494439 287.579981 
C 377.297437 287.579981 378.067655 287.260946 378.63546 286.693141 
C 379.203266 286.125335 379.5223 285.355118 379.5223 284.552119 
C 379.5223 283.749121 379.203266 282.978904 378.63546 282.411098 
C 378.067655 281.843293 377.297437 281.524258 376.494439 281.524258 
C 375.691441 281.524258 374.921223 281.843293 374.353418 282.411098 
C 373.785612 282.978904 373.466578 283.749121 373.466578 284.552119 
C 373.466578 285.355118 373.785612 286.125335 374.353418 286.693141 
C 374.921223 287.260946 375.691441 287.579981 376.494439 287.579981 
L 376.494439 287.579981 
z
" clip-path="url(#p9052b825de)" style="fill: none; stroke: #ff0000; stroke-width: 2; stroke-linejoin: miter"/>
               </g>
               <g id="patch_18">
                <path d="M 312.000994 299.085854 
C 312.803992 299.085854 313.57421 298.766819 314.142015 298.199013 
C 314.709821 297.631208 315.028855 296.86099 315.028855 296.057992 
C 315.028855 295.254994 314.709821 294.484776 314.142015 293.916971 
C 313.57421 293.349166 312.803992 293.030131 312.000994 293.030131 
C 311.197996 293.030131 310.427778 293.349166 309.859973 293.916971 
C 309.292167 294.484776 308.973133 295.254994 308.973133 296.057992 
C 308.973133 296.86099 309.292167 297.631208 309.859973 298.199013 
C 310.427778 298.766819 311.197996 299.085854 312.000994 299.085854 
L 312.000994 299.085854 
z
" clip-path="url(#p9052b825de)" style="fill: none; stroke: #0000ff; stroke-width: 2; stroke-linejoin: miter"/>
               </g>
               <g id="patch_19">
                <path d="M 530.007035 601.87198 
L 651.121456 601.87198 
L 651.121456 565.537645 
L 530.007035 565.537645 
z
" clip-path="url(#p9052b825de)" style="fill: #ffffff; stroke: #000000; stroke-width: 0.5; stroke-linejoin: miter"/>
               </g>
               <g id="patch_20">
                <path d="M 51.604895 589.760535 
L 172.719346 589.760535 
L 172.719346 547.370477 
L 51.604895 547.370477 
z
" clip-path="url(#p9052b825de)" style="fill: #eeeeee; stroke: #000000; stroke-width: 0.5; stroke-linejoin: miter"/>
               </g>
               <g id="patch_21">
                <path d="M 72.799954 568.565506 
Q 69.693202 577.101291 66.777644 585.111772 
" clip-path="url(#p9052b825de)" style="fill: none; stroke: #000000; stroke-width: 0.5; stroke-linejoin: miter; stroke-linecap: round"/>
                <path d="M 73.272563 578.962298 
L 66.777644 585.111772 
L 65.755017 576.226152 
" clip-path="url(#p9052b825de)" style="fill: none; stroke: #000000; stroke-width: 0.5; stroke-linejoin: miter; stroke-linecap: round"/>
                <g id="patch_22">
                 <path d="M 72.799954 586.732674 
C 77.617944 586.732674 82.239249 584.818466 85.646082 581.411633 
C 89.052915 578.004801 90.967122 573.383495 90.967122 568.565506 
C 90.967122 563.747517 89.052915 559.126211 85.646082 555.719379 
C 82.239249 552.312546 77.617944 550.398338 72.799954 550.398338 
C 67.981965 550.398338 63.36066 552.312546 59.953827 555.719379 
C 56.546994 559.126211 54.632787 563.747517 54.632787 568.565506 
C 54.632787 573.383495 56.546994 578.004801 59.953827 581.411633 
C 63.36066 584.818466 67.981965 586.732674 72.799954 586.732674 
L 72.799954 586.732674 
z
" clip-path="url(#p9052b825de)" style="fill: none; stroke: #000000; stroke-width: 2; stroke-linejoin: miter"/>
                </g>
                <g id="matplotlib.axis_1">
                 <g id="xtick_1">
                  <g id="line2d_1">
                   <defs>
                    <path id="mc7f3925cea" d="M 0 0 
L 0 3.5 
" style="stroke: #000000; stroke-width: 0.8"/>
                   </defs>
                   <g>
                    <use xlink:href="#mc7f3925cea" x="42.521342" y="604.899841" style="stroke: #000000; stroke-width: 0.8"/>
                   </g>
                  </g>
                  <g id="text_1">
                   <!-- −10.0 -->
                   <g transform="translate(27.198686 619.498279)scale(0.1 -0.1)">
                    <defs>
                     <path id="DejaVuSans-2212" d="M 678 2272 
L 4684 2272 
L 4684 1741 
L 678 1741 
L 678 2272 
z
" transform="scale(0.015625)"/>
                     <path id="DejaVuSans-31" d="M 794 531 
L 1825 531 
L 1825 4091 
L 703 3866 
L 703 4441 
L 1819 4666 
L 2450 4666 
L 2450 531 
L 3481 531 
L 3481 0 
L 794 0 
L 794 531 
z
" transform="scale(0.015625)"/>
                     <path id="DejaVuSans-30" d="M 2034 4250 
Q 1547 4250 1301 3770 
Q 1056 3291 1056 2328 
Q 1056 1369 1301 889 
Q 1547 409 2034 409 
Q 2525 409 2770 889 
Q 3016 1369 3016 2328 
Q 3016 3291 2770 3770 
Q 2525 4250 2034 4250 
z
M 2034 4750 
Q 2819 4750 3233 4129 
Q 3647 3509 3647 2328 
Q 3647 1150 3233 529 
Q 2819 -91 2034 -91 
Q 1250 -91 836 529 
Q 422 1150 422 2328 
Q 422 3509 836 4129 
Q 1250 4750 2034 4750 
z
" transform="scale(0.015625)"/>
                     <path id="DejaVuSans-2e" d="M 684 794 
L 1344 794 
L 1344 0 
L 684 0 
L 684 794 
z
" transform="scale(0.015625)"/>
                    </defs>
                    <use xlink:href="#DejaVuSans-2212"/>
                    <use xlink:href="#DejaVuSans-31" x="83.789062"/>
                    <use xlink:href="#DejaVuSans-30" x="147.412109"/>
                    <use xlink:href="#DejaVuSans-2e" x="211.035156"/>
                    <use xlink:href="#DejaVuSans-30" x="242.822266"/>
                   </g>
                  </g>
                 </g>
                 <g id="xtick_2">
                  <g id="line2d_2">
                   <g>
                    <use xlink:href="#mc7f3925cea" x="118.217873" y="604.899841" style="stroke: #000000; stroke-width: 0.8"/>
                   </g>
                  </g>
                  <g id="text_2">
                   <!-- −7.5 -->
                   <g transform="translate(106.076467 619.498279)scale(0.1 -0.1)">
                    <defs>
                     <path id="DejaVuSans-37" d="M 525 4666 
L 3525 4666 
L 3525 4397 
L 1831 0 
L 1172 0 
L 2766 4134 
L 525 4134 
L 525 4666 
z
" transform="scale(0.015625)"/>
                     <path id="DejaVuSans-35" d="M 691 4666 
L 3169 4666 
L 3169 4134 
L 1269 4134 
L 1269 2991 
Q 1406 3038 1543 3061 
Q 1681 3084 1819 3084 
Q 2600 3084 3056 2656 
Q 3513 2228 3513 1497 
Q 3513 744 3044 326 
Q 2575 -91 1722 -91 
Q 1428 -91 1123 -41 
Q 819 9 494 109 
L 494 744 
Q 775 591 1075 516 
Q 1375 441 1709 441 
Q 2250 441 2565 725 
Q 2881 1009 2881 1497 
Q 2881 1984 2565 2268 
Q 2250 2553 1709 2553 
Q 1456 2553 1204 2497 
Q 953 2441 691 2322 
L 691 4666 
z
" transform="scale(0.015625)"/>
                    </defs>
                    <use xlink:href="#DejaVuSans-2212"/>
                    <use xlink:href="#DejaVuSans-37" x="83.789062"/>
                    <use xlink:href="#DejaVuSans-2e" x="147.412109"/>
                    <use xlink:href="#DejaVuSans-35" x="179.199219"/>
                   </g>
                  </g>
                 </g>
                 <g id="xtick_3">
                  <g id="line2d_3">
                   <g>
                    <use xlink:href="#mc7f3925cea" x="193.914405" y="604.899841" style="stroke: #000000; stroke-width: 0.8"/>
                   </g>
                  </g>
                  <g id="text_3">
                   <!-- −5.0 -->
                   <g transform="translate(181.772999 619.498279)scale(0.1 -0.1)">
                    <use xlink:href="#DejaVuSans-2212"/>
                    <use xlink:href="#DejaVuSans-35" x="83.789062"/>
                    <use xlink:href="#DejaVuSans-2e" x="147.412109"/>
                    <use xlink:href="#DejaVuSans-30" x="179.199219"/>
                   </g>
                  </g>
                 </g>
                 <g id="xtick_4">
                  <g id="line2d_4">
                   <g>
                    <use xlink:href="#mc7f3925cea" x="269.610937" y="604.899841" style="stroke: #000000; stroke-width: 0.8"/>
                   </g>
                  </g>
                  <g id="text_4">
                   <!-- −2.5 -->
                   <g transform="translate(257.46953 619.498279)scale(0.1 -0.1)">
                    <defs>
                     <path id="DejaVuSans-32" d="M 1228 531 
L 3431 531 
L 3431 0 
L 469 0 
L 469 531 
Q 828 903 1448 1529 
Q 2069 2156 2228 2338 
Q 2531 2678 2651 2914 
Q 2772 3150 2772 3378 
Q 2772 3750 2511 3984 
Q 2250 4219 1831 4219 
Q 1534 4219 1204 4116 
Q 875 4013 500 3803 
L 500 4441 
Q 881 4594 1212 4672 
Q 1544 4750 1819 4750 
Q 2544 4750 2975 4387 
Q 3406 4025 3406 3419 
Q 3406 3131 3298 2873 
Q 3191 2616 2906 2266 
Q 2828 2175 2409 1742 
Q 1991 1309 1228 531 
z
" transform="scale(0.015625)"/>
                    </defs>
                    <use xlink:href="#DejaVuSans-2212"/>
                    <use xlink:href="#DejaVuSans-32" x="83.789062"/>
                    <use xlink:href="#DejaVuSans-2e" x="147.412109"/>
                    <use xlink:href="#DejaVuSans-35" x="179.199219"/>
                   </g>
                  </g>
                 </g>
                 <g id="xtick_5">
                  <g id="line2d_5">
                   <g>
                    <use xlink:href="#mc7f3925cea" x="345.307468" y="604.899841" style="stroke: #000000; stroke-width: 0.8"/>
                   </g>
                  </g>
                  <g id="text_5">
                   <!-- 0.0 -->
                   <g transform="translate(337.355906 619.498279)scale(0.1 -0.1)">
                    <use xlink:href="#DejaVuSans-30"/>
                    <use xlink:href="#DejaVuSans-2e" x="63.623047"/>
                    <use xlink:href="#DejaVuSans-30" x="95.410156"/>
                   </g>
                  </g>
                 </g>
                 <g id="xtick_6">
                  <g id="line2d_6">
                   <g>
                    <use xlink:href="#mc7f3925cea" x="421.004" y="604.899841" style="stroke: #000000; stroke-width: 0.8"/>
                   </g>
                  </g>
                  <g id="text_6">
                   <!-- 2.5 -->
                   <g transform="translate(413.052437 619.498279)scale(0.1 -0.1)">
                    <use xlink:href="#DejaVuSans-32"/>
                    <use xlink:href="#DejaVuSans-2e" x="63.623047"/>
                    <use xlink:href="#DejaVuSans-35" x="95.410156"/>
                   </g>
                  </g>
                 </g>
                 <g id="xtick_7">
                  <g id="line2d_7">
                   <g>
                    <use xlink:href="#mc7f3925cea" x="496.700531" y="604.899841" style="stroke: #000000; stroke-width: 0.8"/>
                   </g>
                  </g>
                  <g id="text_7">
                   <!-- 5.0 -->
                   <g transform="translate(488.748969 619.498279)scale(0.1 -0.1)">
                    <use xlink:href="#DejaVuSans-35"/>
                    <use xlink:href="#DejaVuSans-2e" x="63.623047"/>
                    <use xlink:href="#DejaVuSans-30" x="95.410156"/>
                   </g>
                  </g>
                 </g>
                 <g id="xtick_8">
                  <g id="line2d_8">
                   <g>
                    <use xlink:href="#mc7f3925cea" x="572.397063" y="604.899841" style="stroke: #000000; stroke-width: 0.8"/>
                   </g>
                  </g>
                  <g id="text_8">
                   <!-- 7.5 -->
                   <g transform="translate(564.4455 619.498279)scale(0.1 -0.1)">
                    <use xlink:href="#DejaVuSans-37"/>
                    <use xlink:href="#DejaVuSans-2e" x="63.623047"/>
                    <use xlink:href="#DejaVuSans-35" x="95.410156"/>
                   </g>
                  </g>
                 </g>
                 <g id="xtick_9">
                  <g id="line2d_9">
                   <g>
                    <use xlink:href="#mc7f3925cea" x="648.093594" y="604.899841" style="stroke: #000000; stroke-width: 0.8"/>
                   </g>
                  </g>
                  <g id="text_9">
                   <!-- 10.0 -->
                   <g transform="translate(636.960782 619.498279)scale(0.1 -0.1)">
                    <use xlink:href="#DejaVuSans-31"/>
                    <use xlink:href="#DejaVuSans-30" x="63.623047"/>
                    <use xlink:href="#DejaVuSans-2e" x="127.246094"/>
                    <use xlink:href="#DejaVuSans-30" x="159.033203"/>
                   </g>
                  </g>
                 </g>
                </g>
                <g id="matplotlib.axis_2">
                 <g id="ytick_1">
                  <g id="line2d_10">
                   <defs>
                    <path id="ma5c56c69a4" d="M 0 0 
L -3.5 0 
" style="stroke: #000000; stroke-width: 0.8"/>
                   </defs>
                   <g>
                    <use xlink:href="#ma5c56c69a4" x="36.465625" y="598.844119" style="stroke: #000000; stroke-width: 0.8"/>
                   </g>
                  </g>
                  <g id="text_10">
                   <!-- 0.0 -->
                   <g transform="translate(13.5625 602.643337)scale(0.1 -0.1)">
                    <use xlink:href="#DejaVuSans-30"/>
                    <use xlink:href="#DejaVuSans-2e" x="63.623047"/>
                    <use xlink:href="#DejaVuSans-30" x="95.410156"/>
                   </g>
                  </g>
                 </g>
                 <g id="ytick_2">
                  <g id="line2d_11">
                   <g>
                    <use xlink:href="#ma5c56c69a4" x="36.465625" y="523.147587" style="stroke: #000000; stroke-width: 0.8"/>
                   </g>
                  </g>
                  <g id="text_11">
                   <!-- 2.5 -->
                   <g transform="translate(13.5625 526.946806)scale(0.1 -0.1)">
                    <use xlink:href="#DejaVuSans-32"/>
                    <use xlink:href="#DejaVuSans-2e" x="63.623047"/>
                    <use xlink:href="#DejaVuSans-35" x="95.410156"/>
                   </g>
                  </g>
                 </g>
                 <g id="ytick_3">
                  <g id="line2d_12">
                   <g>
                    <use xlink:href="#ma5c56c69a4" x="36.465625" y="447.451055" style="stroke: #000000; stroke-width: 0.8"/>
                   </g>
                  </g>
                  <g id="text_12">
                   <!-- 5.0 -->
                   <g transform="translate(13.5625 451.250274)scale(0.1 -0.1)">
                    <use xlink:href="#DejaVuSans-35"/>
                    <use xlink:href="#DejaVuSans-2e" x="63.623047"/>
                    <use xlink:href="#DejaVuSans-30" x="95.410156"/>
                   </g>
                  </g>
                 </g>
                 <g id="ytick_4">
                  <g id="line2d_13">
                   <g>
                    <use xlink:href="#ma5c56c69a4" x="36.465625" y="371.754524" style="stroke: #000000; stroke-width: 0.8"/>
                   </g>
                  </g>
                  <g id="text_13">
                   <!-- 7.5 -->
                   <g transform="translate(13.5625 375.553743)scale(0.1 -0.1)">
                    <use xlink:href="#DejaVuSans-37"/>
                    <use xlink:href="#DejaVuSans-2e" x="63.623047"/>
                    <use xlink:href="#DejaVuSans-35" x="95.410156"/>
                   </g>
                  </g>
                 </g>
                 <g id="ytick_5">
                  <g id="line2d_14">
                   <g>
                    <use xlink:href="#ma5c56c69a4" x="36.465625" y="296.057992" style="stroke: #000000; stroke-width: 0.8"/>
                   </g>
                  </g>
                  <g id="text_14">
                   <!-- 10.0 -->
                   <g transform="translate(7.2 299.857211)scale(0.1 -0.1)">
                    <use xlink:href="#DejaVuSans-31"/>
                    <use xlink:href="#DejaVuSans-30" x="63.623047"/>
                    <use xlink:href="#DejaVuSans-2e" x="127.246094"/>
                    <use xlink:href="#DejaVuSans-30" x="159.033203"/>
                   </g>
                  </g>
                 </g>
                 <g id="ytick_6">
                  <g id="line2d_15">
                   <g>
                    <use xlink:href="#ma5c56c69a4" x="36.465625" y="220.361461" style="stroke: #000000; stroke-width: 0.8"/>
                   </g>
                  </g>
                  <g id="text_15">
                   <!-- 12.5 -->
                   <g transform="translate(7.2 224.160679)scale(0.1 -0.1)">
                    <use xlink:href="#DejaVuSans-31"/>
                    <use xlink:href="#DejaVuSans-32" x="63.623047"/>
                    <use xlink:href="#DejaVuSans-2e" x="127.246094"/>
                    <use xlink:href="#DejaVuSans-35" x="159.033203"/>
                   </g>
                  </g>
                 </g>
                 <g id="ytick_7">
                  <g id="line2d_16">
                   <g>
                    <use xlink:href="#ma5c56c69a4" x="36.465625" y="144.664929" style="stroke: #000000; stroke-width: 0.8"/>
                   </g>
                  </g>
                  <g id="text_16">
                   <!-- 15.0 -->
                   <g transform="translate(7.2 148.464148)scale(0.1 -0.1)">
                    <use xlink:href="#DejaVuSans-31"/>
                    <use xlink:href="#DejaVuSans-35" x="63.623047"/>
                    <use xlink:href="#DejaVuSans-2e" x="127.246094"/>
                    <use xlink:href="#DejaVuSans-30" x="159.033203"/>
                   </g>
                  </g>
                 </g>
                 <g id="ytick_8">
                  <g id="line2d_17">
                   <g>
                    <use xlink:href="#ma5c56c69a4" x="36.465625" y="68.968397" style="stroke: #000000; stroke-width: 0.8"/>
                   </g>
                  </g>
                  <g id="text_17">
                   <!-- 17.5 -->
                   <g transform="translate(7.2 72.767616)scale(0.1 -0.1)">
                    <use xlink:href="#DejaVuSans-31"/>
                    <use xlink:href="#DejaVuSans-37" x="63.623047"/>
                    <use xlink:href="#DejaVuSans-2e" x="127.246094"/>
                    <use xlink:href="#DejaVuSans-35" x="159.033203"/>
                   </g>
                  </g>
                 </g>
                </g>
                <g id="patch_23">
                 <path d="M 36.465625 604.899841 
L 36.465625 7.2 
" style="fill: none; stroke: #000000; stroke-width: 0.8; stroke-linejoin: miter; stroke-linecap: square"/>
                </g>
                <g id="patch_24">
                 <path d="M 654.149311 604.899841 
L 654.149311 7.2 
" style="fill: none; stroke: #000000; stroke-width: 0.8; stroke-linejoin: miter; stroke-linecap: square"/>
                </g>
                <g id="patch_25">
                 <path d="M 36.465625 604.899841 
L 654.149311 604.899841 
" style="fill: none; stroke: #000000; stroke-width: 0.8; stroke-linejoin: miter; stroke-linecap: square"/>
                </g>
                <g id="patch_26">
                 <path d="M 36.465625 7.2 
L 654.149311 7.2 
" style="fill: none; stroke: #000000; stroke-width: 0.8; stroke-linejoin: miter; stroke-linecap: square"/>
                </g>
                <g id="text_18">
                 <!-- 3 kts -->
                 <g transform="translate(100.050723 572.980506)scale(0.16 -0.16)">
                  <defs>
                   <path id="DejaVuSans-33" d="M 2597 2516 
Q 3050 2419 3304 2112 
Q 3559 1806 3559 1356 
Q 3559 666 3084 287 
Q 2609 -91 1734 -91 
Q 1441 -91 1130 -33 
Q 819 25 488 141 
L 488 750 
Q 750 597 1062 519 
Q 1375 441 1716 441 
Q 2309 441 2620 675 
Q 2931 909 2931 1356 
Q 2931 1769 2642 2001 
Q 2353 2234 1838 2234 
L 1294 2234 
L 1294 2753 
L 1863 2753 
Q 2328 2753 2575 2939 
Q 2822 3125 2822 3475 
Q 2822 3834 2567 4026 
Q 2313 4219 1838 4219 
Q 1578 4219 1281 4162 
Q 984 4106 628 3988 
L 628 4550 
Q 988 4650 1302 4700 
Q 1616 4750 1894 4750 
Q 2613 4750 3031 4423 
Q 3450 4097 3450 3541 
Q 3450 3153 3228 2886 
Q 3006 2619 2597 2516 
z
" transform="scale(0.015625)"/>
                   <path id="DejaVuSans-20" transform="scale(0.015625)"/>
                   <path id="DejaVuSans-6b" d="M 581 4863 
L 1159 4863 
L 1159 1991 
L 2875 3500 
L 3609 3500 
L 1753 1863 
L 3688 0 
L 2938 0 
L 1159 1709 
L 1159 0 
L 581 0 
L 581 4863 
z
" transform="scale(0.015625)"/>
                   <path id="DejaVuSans-74" d="M 1172 4494 
L 1172 3500 
L 2356 3500 
L 2356 3053 
L 1172 3053 
L 1172 1153 
Q 1172 725 1289 603 
Q 1406 481 1766 481 
L 2356 481 
L 2356 0 
L 1766 0 
Q 1100 0 847 248 
Q 594 497 594 1153 
L 594 3053 
L 172 3053 
L 172 3500 
L 594 3500 
L 594 4494 
L 1172 4494 
z
" transform="scale(0.015625)"/>
                   <path id="DejaVuSans-73" d="M 2834 3397 
L 2834 2853 
Q 2591 2978 2328 3040 
Q 2066 3103 1784 3103 
Q 1356 3103 1142 2972 
Q 928 2841 928 2578 
Q 928 2378 1081 2264 
Q 1234 2150 1697 2047 
L 1894 2003 
Q 2506 1872 2764 1633 
Q 3022 1394 3022 966 
Q 3022 478 2636 193 
Q 2250 -91 1575 -91 
Q 1294 -91 989 -36 
Q 684 19 347 128 
L 347 722 
Q 666 556 975 473 
Q 1284 391 1588 391 
Q 1994 391 2212 530 
Q 2431 669 2431 922 
Q 2431 1156 2273 1281 
Q 2116 1406 1581 1522 
L 1381 1569 
Q 847 1681 609 1914 
Q 372 2147 372 2553 
Q 372 3047 722 3315 
Q 1072 3584 1716 3584 
Q 2034 3584 2315 3537 
Q 2597 3491 2834 3397 
z
" transform="scale(0.015625)"/>
                  </defs>
                  <use xlink:href="#DejaVuSans-33"/>
                  <use xlink:href="#DejaVuSans-20" x="63.623047"/>
                  <use xlink:href="#DejaVuSans-6b" x="95.410156"/>
                  <use xlink:href="#DejaVuSans-74" x="153.320312"/>
                  <use xlink:href="#DejaVuSans-73" x="192.529297"/>
                 </g>
                </g>
                <g id="text_19">
                 <!-- t = 45 min -->
                 <g transform="translate(539.090606 588.119812)scale(0.16 -0.16)">
                  <defs>
                   <path id="DejaVuSans-3d" d="M 678 2906 
L 4684 2906 
L 4684 2381 
L 678 2381 
L 678 2906 
z
M 678 1631 
L 4684 1631 
L 4684 1100 
L 678 1100 
L 678 1631 
z
" transform="scale(0.015625)"/>
                   <path id="DejaVuSans-34" d="M 2419 4116 
L 825 1625 
L 2419 1625 
L 2419 4116 
z
M 2253 4666 
L 3047 4666 
L 3047 1625 
L 3713 1625 
L 3713 1100 
L 3047 1100 
L 3047 0 
L 2419 0 
L 2419 1100 
L 313 1100 
L 313 1709 
L 2253 4666 
z
" transform="scale(0.015625)"/>
                   <path id="DejaVuSans-6d" d="M 3328 2828 
Q 3544 3216 3844 3400 
Q 4144 3584 4550 3584 
Q 5097 3584 5394 3201 
Q 5691 2819 5691 2113 
L 5691 0 
L 5113 0 
L 5113 2094 
Q 5113 2597 4934 2840 
Q 4756 3084 4391 3084 
Q 3944 3084 3684 2787 
Q 3425 2491 3425 1978 
L 3425 0 
L 2847 0 
L 2847 2094 
Q 2847 2600 2669 2842 
Q 2491 3084 2119 3084 
Q 1678 3084 1418 2786 
Q 1159 2488 1159 1978 
L 1159 0 
L 581 0 
L 581 3500 
L 1159 3500 
L 1159 2956 
Q 1356 3278 1631 3431 
Q 1906 3584 2284 3584 
Q 2666 3584 2933 3390 
Q 3200 3197 3328 2828 
z
" transform="scale(0.015625)"/>
                   <path id="DejaVuSans-69" d="M 603 3500 
L 1178 3500 
L 1178 0 
L 603 0 
L 603 3500 
z
M 603 4863 
L 1178 4863 
L 1178 4134 
L 603 4134 
L 603 4863 
z
" transform="scale(0.015625)"/>
                   <path id="DejaVuSans-6e" d="M 3513 2113 
L 3513 0 
L 2938 0 
L 2938 2094 
Q 2938 2591 2744 2837 
Q 2550 3084 2163 3084 
Q 1697 3084 1428 2787 
Q 1159 2491 1159 1978 
L 1159 0 
L 581 0 
L 581 3500 
L 1159 3500 
L 1159 2956 
Q 1366 3272 1645 3428 
Q 1925 3584 2291 3584 
Q 2894 3584 3203 3211 
Q 3513 2838 3513 2113 
z
" transform="scale(0.015625)"/>
                  </defs>
                  <use xlink:href="#DejaVuSans-74"/>
                  <use xlink:href="#DejaVuSans-20" x="39.208984"/>
                  <use xlink:href="#DejaVuSans-3d" x="70.996094"/>
                  <use xlink:href="#DejaVuSans-20" x="154.785156"/>
                  <use xlink:href="#DejaVuSans-34" x="186.572266"/>
                  <use xlink:href="#DejaVuSans-35" x="250.195312"/>
                  <use xlink:href="#DejaVuSans-20" x="313.818359"/>
                  <use xlink:href="#DejaVuSans-6d" x="345.605469"/>
                  <use xlink:href="#DejaVuSans-69" x="443.017578"/>
                  <use xlink:href="#DejaVuSans-6e" x="470.800781"/>
                 </g>
                </g>
               </g>
              </g>
              <defs>
               <clipPath id="p9052b825de">
                <rect x="36.465625" y="7.2" width="617.683686" height="597.699841"/>
               </clipPath>
              </defs>
             </g>
            </g>
           </g>
          </g>
         </g>
        </g>
       </g>
      </g>
     </g>
    </g>
   </g>
  </g>
 </g>
</svg>
